PathFileType	4	(X/Y/Z)	Walk9.trc
DataRate	CameraRate	NumFrames	NumMarkers	Units	OrigDataRate	OrigDataStartFrame	OrigNumFrames
200.000000	200.000000	4	56	mm	200.000000	201	502
Frame#	Times		RBHD		C7		RBack		RASI		RACR1		RUA1		RElbow		RFA1		RWRR		RCAR		LACR1		LElbow		LElbowM		LFA1		RTH1		RTH3		RTH2		RTH4		RLFC		RTB3		RTB2		RTB4		RMT1		RMT5		LTH3		LTH2		LWRU		LTH4		LPSI		CLAV		RPSI		LLFC		LTB1		LBHD		T10		LTB4		RWRU		LTB2		LMT1		LTH1		LWRR		LFHD		RFHD		LCAL		LLMAL		LMT5		RElbowM		LToe		LTB3		LMMAL		RCAL		RToe		LUA1		RLMAL		RMMAL		LCAR
			X1	Y1	Z1	X2	Y2	Z2	X3	Y3	Z3	X4	Y4	Z4	X5	Y5	Z5	X6	Y6	Z6	X7	Y7	Z7	X8	Y8	Z8	X9	Y9	Z9	X10	Y10	Z10	X11	Y11	Z11	X12	Y12	Z12	X13	Y13	Z13	X14	Y14	Z14	X15	Y15	Z15	X16	Y16	Z16	X17	Y17	Z17	X18	Y18	Z18	X19	Y19	Z19	X20	Y20	Z20	X21	Y21	Z21	X22	Y22	Z22	X23	Y23	Z23	X24	Y24	Z24	X25	Y25	Z25	X26	Y26	Z26	X27	Y27	Z27	X28	Y28	Z28	X29	Y29	Z29	X30	Y30	Z30	X31	Y31	Z31	X32	Y32	Z32	X33	Y33	Z33	X34	Y34	Z34	X35	Y35	Z35	X36	Y36	Z36	X37	Y37	Z37	X38	Y38	Z38	X39	Y39	Z39	X40	Y40	Z40	X41	Y41	Z41	X42	Y42	Z42	X43	Y43	Z43	X44	Y44	Z44	X45	Y45	Z45	X46	Y46	Z46	X47	Y47	Z47	X48	Y48	Z48	X49	Y49	Z49	X50	Y50	Z50	X51	Y51	Z51	X52	Y52	Z52	X53	Y53	Z53	X54	Y54	Z54	X55	Y55	Z55	X56	Y56	Z56

201	1.005	-579.8	1549.7	357.65	-610.32	1419.4	281.48	-687.73	1329.4	370.97	-522.2	918.64	412.08	-549.82	1364.6	433.76	-634.18	1184.6	509.26	-708.85	1072.4	527.71	-706.57	926.88	555.15	-678.19	782.62	520.88	-722.62	737.97	557.73	-564.86	1409.8	106.7	-636.38	1094.4	-26.042	-660.4	1085.5	53.247	-504.06	999.29	-48.158	-531.73	718.75	463.81	-452.25	550.16	428.74	-434.45	667.34	415.88	-491.22	633.67	450.51	-414.53	458.06	406.34	-302.02	203.18	321.6	-341.95	288.55	396.49	-324.67	298.39	325.92	-167.9	89.907	278.72	-192.03	70.653	357.75	-659.43	552.94	99.768	-569.11	622.31	124.2	-472.39	884.3	-38.734	-634.04	637.7	84.226	-703.27	940.85	212.86	-478.6	1334.2	269.19	-704.15	939.22	317.63	-710.84	442.3	118.77	-711.25	342	181.16	-591.89	1548.6	220.11	-712.5	1111.9	262.89	-763.62	265.58	192.13	-749.13	801.01	548.75	-789.07	274.39	125	-783.14	35.686	262.99	-605.33	730.83	75.152	-414.26	930.73	-3.8802	-409.58	1584.3	226.98	-402.16	1591	308.05	-986.21	78.154	228.1	-926.15	103.25	180.38	-810.41	28.593	171.86	-728.09	1053.9	434.69	-735.19	24.283	252.52	-811.85	186.89	200.83	-892.69	114.92	266.33	-352.91	22.1	308.12	-129.18	113.05	308.7	-605.44	1222.7	1.1003	-326.83	83.61	355.06	-302.45	111.03	271.19	-389.18	884.46	-51.057
202	1.01	-573.18	1548.5	358.64	-603.55	1418.2	282.25	-681.03	1327.9	371.48	-514.3	917.93	412.45	-543.4	1363.5	434.42	-627.83	1183.3	509.58	-702.52	1071	527.87	-700.54	925.56	555.14	-672.27	781.3	521.11	-716.81	736.67	557.69	-557.88	1408.9	107.29	-628.99	1093.6	-25.655	-653.09	1084.7	53.361	-496.41	998.57	-47.629	-522.66	718.36	463.5	-443.18	549.56	428.35	-425.05	666.73	416.26	-482.44	633.22	450.25	-405.68	457.05	405.85	-297.18	200.85	320.2	-335.32	286.59	395.46	-318.58	296.1	324.65	-164.88	86.56	276.53	-188.61	67.703	355.59	-652.9	551.98	99.852	-562.35	621.29	124.15	-464.72	883.4	-37.792	-627.47	636.89	84.395	-695.54	939.7	213.32	-471.63	1333.4	269.96	-696.36	938.08	317.95	-704.52	441.58	118.72	-705.79	341.31	181.22	-585.02	1547.7	221.12	-704.92	1110.4	263.22	-759.69	265.51	191.85	-743.18	799.71	548.65	-785.02	274.4	124.84	-783	35.666	263.14	-598.62	729.84	75.505	-406.74	930.12	-3.5054	-402.9	1583.4	228.09	-395.48	1590	309.18	-985.06	81.471	227.3	-924.61	105.33	179.77	-810.21	28.621	171.86	-721.57	1052.5	434.58	-735.23	24.315	252.5	-809.15	187.37	200.53	-891.21	116.47	265.88	-350.99	21.629	308.33	-125.55	109.58	305.84	-598.09	1222	1.5312	-323.14	81.668	354.21	-299.13	108.22	269.94	-381.33	884	-51.007
203	1.015	-566.64	1547.5	359.64	-596.78	1417	282.85	-674.5	1326.7	371.77	-506.19	917.53	412.74	-536.97	1362.5	435.2	-621.5	1182	509.99	-696.38	1069.7	528.1	-694.31	924.34	555.17	-666.23	779.8	521.58	-710.76	735.39	557.58	-550.83	1408	108.05	-621.64	1092.8	-25.52	-645.56	1083.7	53.688	-488.92	998	-47.431	-514.02	717.76	462.92	-434.45	549.02	427.47	-415.9	666.06	416.82	-473.76	632.47	449.98	-397.19	455.99	405.47	-292.14	198.48	318.51	-328.82	284.32	394.24	-312.63	293.73	322.9	-162.38	82.41	274.64	-185.45	63.379	353.21	-646.2	551.04	100.31	-555.39	620.3	123.84	-456.99	882.52	-37.254	-620.61	636.19	84.555	-688.02	938.67	213.45	-464.63	1332.5	270.45	-688.46	936.88	318.23	-698.2	440.82	118.85	-700.69	340.06	180.92	-578.5	1547	221.99	-697.42	1109	263.48	-755.62	265.33	191.68	-737.08	798.54	548.4	-780.91	274.63	124.65	-782.95	35.755	262.73	-591.67	728.99	75.631	-399.28	929.46	-3.1692	-396.33	1582.7	229.21	-389.09	1589.2	310.18	-983.86	84.923	226.37	-922.93	107.66	179.08	-809.98	28.626	171.81	-714.99	1051.2	434.63	-735.35	24.31	252.41	-806.37	187.98	200.12	-889.31	118.18	265.19	-350.29	21.956	308.13	-122.47	104.88	302.81	-590.78	1221.3	2.288	-319.54	79.402	353.36	-295.96	105.25	268.7	-373.63	883.54	-50.908
204	1.02	-560.15	1546.4	360.72	-590.08	1415.9	283.52	-667.91	1325.2	372.17	-498.09	916.94	412.89	-530.58	1361.3	436.19	-615.15	1180.9	510.43	-689.67	1068.5	528.22	-687.81	922.98	555.41	-659.88	778.59	521.85	-704.41	734.1	557.43	-544.08	1407.2	108.72	-613.99	1092.1	-25.159	-638.18	1082.9	54.203	-481.24	997.1	-47.204	-505.2	717.15	462.33	-426.02	548.41	426.38	-406.86	665.49	417.62	-465.26	631.9	449.66	-388.31	455.06	405.04	-286.85	196.24	316.48	-322.35	282.5	392.55	-306.55	291.58	321.63	-159.3	75.991	273.21	-182.84	56.872	350.96	-639.39	550.24	100.46	-548.24	619.45	123.65	-449.41	881.82	-37.077	-613.43	635.39	84.37	-680.61	937.48	213.96	-457.78	1331.9	271.23	-680.68	935.92	318.51	-691.41	440.22	119.1	-695.5	338.93	181.13	-571.82	1546	222.87	-690.01	1107.7	263.86	-751.45	265.18	191.61	-730.97	797.23	548.31	-776.34	275.02	124.49	-782.8	35.784	262.4	-584.63	728.15	75.802	-391.73	928.74	-2.7087	-389.7	1581.9	230.36	-382.3	1588.2	311.52	-982.38	88.322	225.67	-921.12	110.07	178.39	-809.66	28.739	171.84	-708.16	1050	434.69	-735.48	24.294	252.31	-803.01	188.72	199.53	-887.49	119.92	264.41	-349.58	23.391	307.39	-119.09	97.301	298.62	-583.51	1220.3	2.8338	-315.96	77.433	351.93	-292.99	103.34	267.33	-366.3	882.9	-50.543
